REM DIRINDEX 1\2,1\3,1\4,1\6,1\5\7,1\5\8
REM DIRNAME cjc114,folder01,folder02,folder03,folder04,folder05,folder06,folder07
TITLE ""
FILE "DB4500_5th_6C_27.mp3" MP3
  TRACK 01 AUDIO
    TITLE "0:"
    INDEX 01 00:00:00
  TRACK 02 AUDIO
    TITLE "2:cjc114_4172"
    INDEX 01 00:00:01
  TRACK 03 AUDIO
    TITLE "0:"
    INDEX 01 00:01:09
  TRACK 04 AUDIO
    TITLE "3:cjc114_4173"
    INDEX 01 00:01:24
  TRACK 05 AUDIO
    TITLE "0:"
    INDEX 01 00:02:43
  TRACK 06 AUDIO
    TITLE "4:cjc114_4174"
    INDEX 01 00:02:57
  TRACK 07 AUDIO
    TITLE "0:"
    INDEX 01 00:05:40
  TRACK 08 AUDIO
    TITLE "2:cjc114_4175"
    INDEX 01 00:06:06
  TRACK 09 AUDIO
    TITLE "0:"
    INDEX 01 00:07:09
  TRACK 10 AUDIO
    TITLE "3:cjc114_4176"
    INDEX 01 00:07:25
  TRACK 11 AUDIO
    TITLE "0:"
    INDEX 01 00:08:50
  TRACK 12 AUDIO
    TITLE "4:cjc114_4177"
    INDEX 01 00:08:64
  TRACK 13 AUDIO
    TITLE "0:"
    INDEX 01 00:12:22
  TRACK 14 AUDIO
    TITLE "4:cjc114_4178"
    INDEX 01 00:12:46
  TRACK 15 AUDIO
    TITLE "0:"
    INDEX 01 00:16:02
  TRACK 16 AUDIO
    TITLE "2:cjc114_4179"
    INDEX 01 00:16:40
  TRACK 17 AUDIO
    TITLE "0:"
    INDEX 01 00:17:39
  TRACK 18 AUDIO
    TITLE "3:cjc114_4180"
    INDEX 01 00:17:53
  TRACK 19 AUDIO
    TITLE "0:"
    INDEX 01 00:18:41
  TRACK 20 AUDIO
    TITLE "4:cjc114_4181"
    INDEX 01 00:18:54
  TRACK 21 AUDIO
    TITLE "0:"
    INDEX 01 00:22:70
  TRACK 22 AUDIO
    TITLE "2:cjc114_4182"
    INDEX 01 00:23:32
  TRACK 23 AUDIO
    TITLE "0:"
    INDEX 01 00:24:24
  TRACK 24 AUDIO
    TITLE "3:cjc114_4183"
    INDEX 01 00:24:35
  TRACK 25 AUDIO
    TITLE "0:"
    INDEX 01 00:25:48
  TRACK 26 AUDIO
    TITLE "4:cjc114_4184"
    INDEX 01 00:25:72
  TRACK 27 AUDIO
    TITLE "0:"
    INDEX 01 00:28:21
  TRACK 28 AUDIO
    TITLE "2:cjc114_4185"
    INDEX 01 00:28:59
  TRACK 29 AUDIO
    TITLE "0:"
    INDEX 01 00:29:60
  TRACK 30 AUDIO
    TITLE "3:cjc114_4186"
    INDEX 01 00:29:74
  TRACK 31 AUDIO
    TITLE "0:"
    INDEX 01 00:31:35
  TRACK 32 AUDIO
    TITLE "4:cjc114_4187"
    INDEX 01 00:31:49
  TRACK 33 AUDIO
    TITLE "0:"
    INDEX 01 00:34:10
  TRACK 34 AUDIO
    TITLE "2:cjc114_4188"
    INDEX 01 00:34:45
  TRACK 35 AUDIO
    TITLE "0:"
    INDEX 01 00:35:51
  TRACK 36 AUDIO
    TITLE "3:cjc114_4189"
    INDEX 01 00:35:64
  TRACK 37 AUDIO
    TITLE "0:"
    INDEX 01 00:37:16
  TRACK 38 AUDIO
    TITLE "4:cjc114_4190"
    INDEX 01 00:37:30
  TRACK 39 AUDIO
    TITLE "0:"
    INDEX 01 00:40:66
  TRACK 40 AUDIO
    TITLE "2:cjc114_4191"
    INDEX 01 00:41:28
  TRACK 41 AUDIO
    TITLE "0:"
    INDEX 01 00:42:57
  TRACK 42 AUDIO
    TITLE "3:cjc114_4192"
    INDEX 01 00:42:70
  TRACK 43 AUDIO
    TITLE "0:"
    INDEX 01 00:44:07
  TRACK 44 AUDIO
    TITLE "4:cjc114_4193"
    INDEX 01 00:44:20
  TRACK 45 AUDIO
    TITLE "0:"
    INDEX 01 00:48:71
  TRACK 46 AUDIO
    TITLE "2:cjc114_4194"
    INDEX 01 00:49:45
  TRACK 47 AUDIO
    TITLE "0:"
    INDEX 01 00:50:46
  TRACK 48 AUDIO
    TITLE "3:cjc114_4195"
    INDEX 01 00:50:60
  TRACK 49 AUDIO
    TITLE "0:"
    INDEX 01 00:52:14
  TRACK 50 AUDIO
    TITLE "4:cjc114_4196"
    INDEX 01 00:52:30
  TRACK 51 AUDIO
    TITLE "0:"
    INDEX 01 00:55:34
  TRACK 52 AUDIO
    TITLE "2:cjc114_4197"
    INDEX 01 00:55:71
  TRACK 53 AUDIO
    TITLE "0:"
    INDEX 01 00:56:71
  TRACK 54 AUDIO
    TITLE "3:cjc114_4198"
    INDEX 01 00:57:13
  TRACK 55 AUDIO
    TITLE "0:"
    INDEX 01 00:58:52
  TRACK 56 AUDIO
    TITLE "4:cjc114_4199"
    INDEX 01 00:58:66
  TRACK 57 AUDIO
    TITLE "0:"
    INDEX 01 01:03:18
  TRACK 58 AUDIO
    TITLE "2:cjc114_4200"
    INDEX 01 01:03:61
  TRACK 59 AUDIO
    TITLE "0:"
    INDEX 01 01:04:66
  TRACK 60 AUDIO
    TITLE "3:cjc114_4201"
    INDEX 01 01:05:05
  TRACK 61 AUDIO
    TITLE "0:"
    INDEX 01 01:06:16
  TRACK 62 AUDIO
    TITLE "4:cjc114_4202"
    INDEX 01 01:06:28
  TRACK 63 AUDIO
    TITLE "0:"
    INDEX 01 01:10:10
